<svg xmlns="http://www.w3.org/2000/svg" width="46" height="57" fill="none" viewBox="0 0 46 57">
  <path fill="#562CB4" fill-rule="evenodd" d="M31.291 9.1c1.969-2.41 3.296-5.763 2.933-9.1-2.837.114-6.269 1.913-8.303 4.318-1.826 2.135-3.42 5.546-2.992 8.817 3.164.248 6.394-1.624 8.362-4.035Zm7.096 21.181c.08 8.627 7.481 11.497 7.563 11.534-.06.202-1.182 4.089-3.899 8.107-2.35 3.472-4.789 6.929-8.63 7.003-3.773.071-4.988-2.263-9.305-2.263-4.313 0-5.662 2.188-9.233 2.334-3.708.14-6.534-3.756-8.9-7.216-4.844-7.076-8.544-19.997-3.575-28.718 2.468-4.33 6.878-7.075 11.667-7.143 3.639-.072 7.076 2.477 9.302 2.477 2.225 0 6.402-3.064 10.792-2.614 1.838.077 6.998.75 10.31 5.654-.268.169-6.157 3.635-6.092 10.845Z" clip-rule="evenodd"/>
</svg>
