<svg xmlns="http://www.w3.org/2000/svg" width="60" height="64" fill="none" viewBox="0 0 60 64">
  <path fill="#2292F4" d="m42.681 1.403-3.505 4.512c5.48 2.379 9.433 6.81 9.885 11.978H11.686c.448-5.168 4.312-9.597 9.792-11.978l-3.505-4.512c-.18-.328-.089-.656.181-.822.27-.165.63-.081.9.166l3.594 4.759a23.287 23.287 0 0 1 7.728-1.313c2.786 0 5.302.494 7.728 1.313l3.594-4.76a.62.62 0 0 1 .808-.165c.267.163.36.494.18.822h-.005ZM22.464 13.134c1.167 0 2.067-.822 2.067-1.887 0-.985-.9-1.888-2.067-1.888-1.078 0-2.067.903-2.067 1.888 0 1.065.989 1.887 2.067 1.887Zm15.994 0c1.167 0 2.067-.822 2.067-1.887 0-.985-.9-1.888-2.067-1.888-1.078 0-2.067.903-2.067 1.888 0 1.065.989 1.887 2.067 1.887ZM.813 39.3V24.125c0-2.134 1.796-3.938 4.223-3.938 2.337 0 4.134 1.806 4.134 3.938V39.3c0 2.216-1.797 3.938-4.134 3.938-2.427 0-4.223-1.722-4.223-3.938Zm50.582 0V24.125c0-2.134 1.886-3.938 4.224-3.938 2.337 0 4.223 1.806 4.223 3.938V39.3c0 2.216-1.886 3.938-4.223 3.938-2.338 0-4.224-1.722-4.224-3.938Zm-39.62 8.778v-27.81H49.15v27.81c0 1.64-1.527 3.035-3.324 3.035h-3.682v8.612c0 2.134-1.886 3.856-4.224 3.856-2.337 0-4.223-1.722-4.223-3.856v-8.612h-6.558v8.612c0 2.134-1.797 3.856-4.134 3.856-2.427 0-4.224-1.722-4.224-3.856v-8.612h-3.775c-1.707 0-3.231-1.394-3.231-3.035Z"/>
</svg>
